<?xml version="1.0" standalone="no"?><!DOCTYPE svg PUBLIC "-//W3C//DTD SVG 1.1//EN" "http://www.w3.org/Graphics/SVG/1.1/DTD/svg11.dtd"><svg t="1684222220021" class="icon" viewBox="0 0 1024 1024" version="1.1" xmlns="http://www.w3.org/2000/svg" p-id="32316" xmlns:xlink="http://www.w3.org/1999/xlink" width="200" height="200"><path d="M795.295811 512.795207h113.601065a56.800533 56.800533 0 0 1 56.800533 56.800533v397.603727a56.800533 56.800533 0 0 1-56.800533 56.800533H113.689421a56.800533 56.800533 0 0 1-56.800532-56.800533v-397.603727a56.800533 56.800533 0 0 1 56.800532-56.800533h113.601065L252.16912 30.95629a30.95629 30.95629 0 0 1 61.91258 0L340.891551 512.795207h340.803195l24.878634-481.838917a30.95629 30.95629 0 0 1 61.91258 0L795.295811 512.795207z m28.400267 284.002663a28.400266 28.400266 0 0 0-28.400267 28.400266v113.601065a28.400266 28.400266 0 1 0 56.800533 0v-113.601065a28.400266 28.400266 0 0 0-28.400266-28.400266z m-113.601065 0a28.400266 28.400266 0 0 0-28.400267 28.400266v113.601065a28.400266 28.400266 0 1 0 56.800533 0v-113.601065a28.400266 28.400266 0 0 0-28.400266-28.400266z m-511.204793-170.401598a28.400266 28.400266 0 1 0 0 56.800533 28.400266 28.400266 0 0 0 0-56.800533z m113.601065 0a28.400266 28.400266 0 1 0 0 56.800533 28.400266 28.400266 0 0 0 0-56.800533z m113.601065 0a28.400266 28.400266 0 1 0 0 56.800533 28.400266 28.400266 0 0 0 0-56.800533z" fill="#1296db" p-id="32317"></path></svg>